<?xml version="1.0" encoding="utf-8" standalone="no"?>
<!DOCTYPE svg PUBLIC "-//W3C//DTD SVG 1.1//EN"
  "http://www.w3.org/Graphics/SVG/1.1/DTD/svg11.dtd">
<svg xmlns:xlink="http://www.w3.org/1999/xlink" width="432pt" height="288pt" viewBox="0 0 432 288" xmlns="http://www.w3.org/2000/svg" version="1.1">
 <metadata>
  <rdf:RDF xmlns:dc="http://purl.org/dc/elements/1.1/" xmlns:cc="http://creativecommons.org/ns#" xmlns:rdf="http://www.w3.org/1999/02/22-rdf-syntax-ns#">
   <cc:Work>
    <dc:type rdf:resource="http://purl.org/dc/dcmitype/StillImage"/>
    <dc:date>2026-06-10T12:18:46.591325</dc:date>
    <dc:format>image/svg+xml</dc:format>
    <dc:creator>
     <cc:Agent>
      <dc:title>Matplotlib v3.10.8, https://matplotlib.org/</dc:title>
     </cc:Agent>
    </dc:creator>
   </cc:Work>
  </rdf:RDF>
 </metadata>
 <defs>
  <style type="text/css">*{stroke-linejoin: round; stroke-linecap: butt}</style>
 </defs>
 <g id="figure_1">
  <g id="patch_1">
   <path d="M 0 288 
L 432 288 
L 432 0 
L 0 0 
z
" style="fill: #ffffff"/>
  </g>
  <g id="axes_1">
   <g id="patch_2">
    <path d="M 310.104 145.44 
C 310.104 129.870355 306.00474 114.571708 298.219917 101.088 
C 290.435095 87.604292 279.235708 76.404905 265.752 68.620083 
C 252.268292 60.83526 236.969645 56.736 221.4 56.736 
C 205.830355 56.736 190.531708 60.83526 177.048 68.620083 
L 221.4 145.44 
z
" style="fill: #95d0fc"/>
   </g>
   <g id="patch_3">
    <path d="M 177.047995 68.620084 
C 169.270868 73.110213 162.220506 78.755431 156.138346 85.362417 
C 150.056186 91.969402 145.012458 99.461867 141.179899 107.583225 
L 221.4 145.44 
z
" style="fill: #9a0eea"/>
   </g>
   <g id="patch_4">
    <path d="M 141.179899 107.583225 
C 137.347335 115.704586 134.770199 124.361067 133.536729 133.25621 
C 132.303258 142.151353 132.427708 151.182439 133.90581 160.040217 
L 221.4 145.44 
z
" style="fill: #658b38"/>
   </g>
   <g id="patch_5">
    <path d="M 133.90581 160.040217 
C 135.383913 168.897985 138.198601 177.480165 142.253486 185.49283 
C 146.30837 193.505492 151.556622 200.856123 157.818519 207.29301 
L 221.4 145.44 
z
" style="fill: #03719c"/>
   </g>
   <g id="patch_6">
    <path d="M 157.818519 207.29301 
C 159.523298 209.045427 161.299798 210.726615 163.143466 212.33227 
C 164.987134 213.937926 166.8964 215.466674 168.866368 216.914592 
L 221.4 145.44 
z
" style="fill: #fcc006"/>
   </g>
   <g id="patch_7">
    <path d="M 168.866368 216.914592 
C 174.124174 220.779064 179.792393 224.051611 185.768024 226.672763 
C 191.743656 229.293915 197.990292 231.247714 204.394489 232.49867 
L 221.4 145.44 
z
" style="fill: #fcb001"/>
   </g>
   <g id="patch_8">
    <path d="M 204.394489 232.49867 
C 214.012891 234.377471 223.876482 234.649358 233.583778 233.303276 
C 243.291074 231.957189 252.708551 229.011633 261.452803 224.586525 
L 221.4 145.44 
z
" style="fill: #ffa500"/>
   </g>
   <g id="patch_9">
    <path d="M 261.452803 224.586525 
C 276.084907 217.181821 288.380947 205.862513 296.96867 191.891863 
C 305.556394 177.921213 310.104 161.83901 310.104 145.439984 
L 221.4 145.44 
z
" style="fill: #ff8c00"/>
   </g>
   <g id="matplotlib.axis_1"/>
   <g id="matplotlib.axis_2"/>
   <g id="text_1">
    <text style="font-size: 10px; font-family: 'DejaVu Sans', 'Bitstream Vera Sans', 'Computer Modern Sans Serif', 'Lucida Grande', 'Verdana', 'Geneva', 'Lucid', 'Arial', 'Helvetica', 'Avant Garde', sans-serif; text-anchor: start" x="270.187198" y="63.697464" transform="rotate(-0 270.187198 63.697464)">Non-premotor</text>
   </g>
   <g id="text_2">
    <text style="font-size: 10px; font-family: 'DejaVu Sans', 'Bitstream Vera Sans', 'Computer Modern Sans Serif', 'Lucida Grande', 'Verdana', 'Geneva', 'Lucid', 'Arial', 'Helvetica', 'Avant Garde', sans-serif; text-anchor: end" x="149.612179" y="82.114035" transform="rotate(-0 149.612179 82.114035)">XII</text>
   </g>
   <g id="text_3">
    <text style="font-size: 10px; font-family: 'DejaVu Sans', 'Bitstream Vera Sans', 'Computer Modern Sans Serif', 'Lucida Grande', 'Verdana', 'Geneva', 'Lucid', 'Arial', 'Helvetica', 'Avant Garde', sans-serif; text-anchor: end" x="124.750399" y="134.797206" transform="rotate(-0 124.750399 134.797206)">V</text>
   </g>
   <g id="text_4">
    <text style="font-size: 10px; font-family: 'DejaVu Sans', 'Bitstream Vera Sans', 'Computer Modern Sans Serif', 'Lucida Grande', 'Verdana', 'Geneva', 'Lucid', 'Arial', 'Helvetica', 'Avant Garde', sans-serif; text-anchor: end" x="134.338836" y="192.257487" transform="rotate(-0 134.338836 192.257487)">VII</text>
   </g>
   <g id="text_5">
    <text style="font-size: 10px; font-family: 'DejaVu Sans', 'Bitstream Vera Sans', 'Computer Modern Sans Serif', 'Lucida Grande', 'Verdana', 'Geneva', 'Lucid', 'Arial', 'Helvetica', 'Avant Garde', sans-serif; text-anchor: end" x="157.317831" y="221.780889" transform="rotate(-0 157.317831 221.780889)">XII/V</text>
   </g>
   <g id="text_6">
    <text style="font-size: 10px; font-family: 'DejaVu Sans', 'Bitstream Vera Sans', 'Computer Modern Sans Serif', 'Lucida Grande', 'Verdana', 'Geneva', 'Lucid', 'Arial', 'Helvetica', 'Avant Garde', sans-serif; text-anchor: end" x="182.204827" y="237.555416" transform="rotate(-0 182.204827 237.555416)">XII/VII</text>
   </g>
   <g id="text_7">
    <text style="font-size: 10px; font-family: 'DejaVu Sans', 'Bitstream Vera Sans', 'Computer Modern Sans Serif', 'Lucida Grande', 'Verdana', 'Geneva', 'Lucid', 'Arial', 'Helvetica', 'Avant Garde', sans-serif; text-anchor: start" x="234.802248" y="244.848965" transform="rotate(-0 234.802248 244.848965)">V/VII</text>
   </g>
   <g id="text_8">
    <text style="font-size: 10px; font-family: 'DejaVu Sans', 'Bitstream Vera Sans', 'Computer Modern Sans Serif', 'Lucida Grande', 'Verdana', 'Geneva', 'Lucid', 'Arial', 'Helvetica', 'Avant Garde', sans-serif; text-anchor: start" x="304.525514" y="199.296463" transform="rotate(-0 304.525514 199.296463)">XII/V/VII</text>
   </g>
  </g>
  <g id="text_9">
   <text style="font-size: 12px; font-family: 'DejaVu Sans', 'Bitstream Vera Sans', 'Computer Modern Sans Serif', 'Lucida Grande', 'Verdana', 'Geneva', 'Lucid', 'Arial', 'Helvetica', 'Avant Garde', sans-serif; text-anchor: middle" x="216" y="14.878125" transform="rotate(-0 216 14.878125)">Premotor prevalence in IRN/PARN reconstructions</text>
  </g>
 </g>
</svg>
